<svg width="40" height="40" fill="none" xmlns="http://www.w3.org/2000/svg"><path d="M15.402 35.22h8.353V23.06h-8.353V35.22Zm6.839-1.476h-5.325v-9.207h5.273v9.207h.052Z" fill="#81B3D2"/><path d="M37.904 22.043 39 20.975l-5.169-5.036V2.203h-7.205v6.715L19.474 2 0 21.026l1.096 1.068 4.073-3.968v19.23H3.133v1.474h33.361v-1.475h-2.663v-19.28l4.073 3.968ZM28.14 3.73h4.124v10.733l-4.124-4.018V3.73Zm4.176 33.574H6.735V16.6L19.474 4.137 32.265 16.6v20.704h.052Z" fill="#81B3D2"/><path d="M15.558 15.837c0 2.187 1.828 3.968 4.02 3.968 2.245 0 4.073-1.78 4.073-3.968 0-2.188-1.828-3.917-4.073-3.917s-4.02 1.73-4.02 3.917Zm4.02-2.544c1.41 0 2.61 1.12 2.61 2.544 0 1.373-1.148 2.543-2.61 2.543-1.41 0-2.61-1.119-2.61-2.543 0-1.374 1.2-2.544 2.61-2.544ZM10.39 23.061H8.822v1.984h1.566v-1.984ZM13.47 23.061h-1.566v1.984h1.566v-1.984ZM10.39 26.113H8.822v1.984h1.566v-1.984ZM13.47 26.113h-1.566v1.984h1.566v-1.984ZM27.044 23.061h-1.566v1.984h1.566v-1.984ZM30.177 23.061H28.61v1.984h1.566v-1.984ZM27.044 26.113h-1.566v1.984h1.566v-1.984ZM30.177 26.113H28.61v1.984h1.566v-1.984Z" fill="#81B3D2"/></svg>