<svg width="102" height="84" viewBox="0 0 102 84" fill="none" xmlns="http://www.w3.org/2000/svg">
<path d="M1.82958 0.696915L51.0043 58.8395L99.8816 1.09515L1.82958 0.696915Z" fill="#23A9E1"/>
<path d="M79.9539 17.2237C74.8976 17.2237 69.9405 17.3233 64.8842 17.3233C70.8328 10.4537 73.5097 11.1506 79.9539 17.2237Z" fill="white"/>
<path d="M39.1072 22.5999C47.9309 22.5999 56.7546 22.5999 65.5782 22.5999C63.5954 21.4052 58.9357 15.5312 56.358 17.7215C56.1597 17.9207 48.9223 8.86077 44.1635 13.2414C39.9995 17.0246 38.1158 12.7436 33.3569 15.7304C28.1024 19.3145 36.5295 21.4052 39.1072 22.5999Z" fill="white"/>
<path d="M51.3017 0H0.838158V22.4008L51.0043 83.6298L51.3017 83.2315L101.567 23.0977V0H51.3017ZM13.4293 1.79207H18.8821V18.9163L13.4293 12.4449V1.79207ZM12.6361 11.5489L7.67899 5.67488V1.79207H12.6361V11.5489ZM31.7706 8.86077L26.1195 1.79207H31.7706V8.86077ZM25.2272 12.644L19.6752 1.79207H25.2272V12.644ZM19.5761 3.38501L25.0289 14.0379C22.2529 16.1286 20.3692 18.0202 19.5761 18.9163V3.38501ZM26.0204 2.88722L31.5723 9.75681C30.4818 10.3542 29.3912 11.0511 28.4989 11.6484C27.6066 12.2458 26.8135 12.8431 26.0204 13.4405V2.88722ZM32.5638 2.6881L37.3226 6.86959C35.6372 7.5665 34.0509 8.36298 32.5638 9.15945V2.6881ZM38.1158 6.57091L32.7621 1.79207H38.7106V6.37179C38.4132 6.37179 38.314 6.47135 38.1158 6.57091ZM57.052 1.79207H62.0091L57.052 4.18149V1.79207ZM51.3017 1.79207H55.664L51.3017 3.88281V1.79207ZM50.4094 3.78325L46.2454 1.79207H50.4094V3.78325ZM44.9566 4.28105L39.9003 1.79207H44.9566V4.28105ZM39.4046 2.38942L44.0643 4.67928C42.478 5.07752 40.8917 5.47576 39.4046 5.97355V2.38942ZM45.7497 2.38942L49.1206 3.98237C47.9309 4.08193 46.8403 4.18149 45.6506 4.38061V2.38942H45.7497ZM56.0606 2.48898V4.38061C54.97 4.18149 53.8794 4.08193 52.6897 3.98237L56.0606 2.48898ZM62.5048 2.38942V6.07311C61.0177 5.57532 59.4314 5.07752 57.746 4.67928L62.5048 2.38942ZM63.1988 1.79207H69.0482L63.6945 6.57091C63.4962 6.47135 63.3971 6.47135 63.1988 6.37179V1.79207ZM76.6822 1.79207H82.2342L76.6822 12.644V1.79207ZM70.1388 1.79207H75.7899L70.1388 8.76121V1.79207ZM69.3457 2.6881V9.15945C67.8585 8.36298 66.2722 7.5665 64.5868 6.86959L69.3457 2.6881ZM75.8891 2.88722V13.3409C75.1951 12.8431 74.4019 12.3453 73.6088 11.748C72.6173 11.0511 71.4276 10.3542 70.2379 9.65725L75.8891 2.88722ZM82.2342 3.38501V18.518C81.1436 17.5224 79.3591 15.8299 76.7813 13.9383L82.2342 3.38501ZM83.0273 19.3145V1.79207H88.4802V13.1418L83.0273 19.3145C83.1265 19.4141 83.0273 19.4141 83.0273 19.3145ZM89.2733 1.79207H94.2304V6.47135L89.2733 12.2458V1.79207ZM6.985 1.79207V4.67928L4.50643 1.79207H6.985ZM19.6752 19.9118L19.7744 20.0114C19.7744 20.0114 23.3435 16.1286 28.8955 12.4449C34.1501 8.96033 42.0815 4.8784 51.0043 4.97796C59.828 4.97796 67.9576 9.15945 73.1131 12.644C78.665 16.3277 82.3333 20.111 82.4325 20.2105L78.5659 24.6907C71.7251 25.5867 66.7679 30.7638 60.1254 29.6687C56.7546 29.0713 56.6554 27.1797 55.664 25.1885C54.97 23.6951 53.7803 23.8942 52.194 23.2969C50.806 22.6995 49.9137 21.6044 47.0386 22.2017C44.56 22.7991 44.2626 26.6819 41.09 26.4828C39.4046 26.3832 39.3055 23.9938 36.926 21.007C30.6801 13.4405 24.8307 14.5356 20.865 21.5048L50.9051 57.2466L19.6752 19.9118ZM94.9244 5.47576V1.79207H98.097L94.9244 5.47576Z" fill="#491213"/>
<path d="M46.9394 70.5875L51.0043 64.1161L54.97 70.5875L51.0043 77.0589L46.9394 70.5875Z" fill="#23A9E1"/>
<path d="M23.9384 32.1576C24.4341 32.755 24.8307 33.4519 24.7315 34.2484C24.6324 34.8457 23.8392 35.8413 24.4341 36.0404C25.1281 35.1444 25.9212 34.1488 26.6152 33.2528C26.0204 33.0537 21.2615 27.4783 21.2615 26.7814C20.171 27.3788 19.1795 27.9761 18.089 28.4739C18.2873 29.1709 19.3778 28.4739 19.9727 28.4739C20.7658 28.5735 21.3607 29.0713 21.9555 29.6687C20.2701 31.0625 16.1061 34.6466 15.6104 34.7462C15.4121 34.7462 14.5198 34.1488 14.5198 34.6466C14.5198 34.9453 15.4121 35.6422 15.5113 35.8413C16.2053 36.7374 16.9984 37.6334 17.6924 38.5294C18.2873 38.2307 17.5933 37.8325 17.8907 37.3347C18.1881 36.9365 22.7487 33.0537 23.9384 32.1576Z" fill="white"/>
<path d="M18.6838 25.1885C19.0804 25.0889 19.2787 25.5867 19.6752 25.0889C18.8821 24.0933 18.089 23.1973 17.2958 22.2017C16.8992 21.8035 16.5027 21.3057 16.6018 22.2017C16.701 22.7991 10.5541 27.8766 10.1576 27.9761C9.66184 28.1753 9.36441 27.5779 9.06699 28.0757C9.76098 28.9717 10.5541 29.7682 11.2481 30.6642C11.4464 30.9629 11.7438 31.2616 11.9421 31.5603C12.2395 31.859 12.1404 30.8634 12.1404 30.9629C12.0413 30.4651 12.6361 30.0669 13.0327 29.7682C14.5198 28.4739 18.2872 25.1885 18.6838 25.1885Z" fill="white"/>
<path d="M9.95927 24.2925C8.17471 24.7903 6.291 24.0933 5.79529 22.3013C5.29957 20.5092 6.39014 18.518 7.87728 17.5224C9.26527 16.5268 11.4464 16.5268 12.2396 18.3189C12.537 19.1154 12.4378 20.0114 12.1404 20.8079C11.9421 21.3057 11.5456 21.8035 12.2396 22.1022C13.1318 21.007 13.925 19.9118 14.8173 18.8167C13.7267 18.2193 13.3301 17.1242 12.537 16.2282C11.6447 15.133 10.455 14.1374 9.06699 13.9383C6.19186 13.5401 3.51501 16.5268 3.31672 19.1154C3.21758 20.6088 3.71329 21.903 4.50644 23.0977C5.29958 24.0933 6.39014 24.6907 6.88585 25.8854C7.18328 25.985 9.5627 24.8898 10.1576 24.5911C10.0584 24.4916 10.0584 24.392 9.95927 24.2925C9.26528 24.4916 9.95927 24.2925 9.95927 24.2925Z" fill="white"/>
<path d="M48.9223 60.532C47.7326 59.7355 44.9566 55.8527 44.3617 55.2554C44.2626 55.1558 44.1635 54.9567 44.0643 54.8571C44.0643 54.8571 43.7669 55.0563 43.866 55.0563C43.6677 55.1558 43.9652 55.6536 43.7669 55.9523C42.9737 57.147 38.0166 60.9303 37.8183 61.1294C37.2235 61.5276 36.6286 60.9303 36.3312 61.4281C37.0252 62.3241 39.1072 64.9126 39.3055 65.0122C39.8012 65.1117 39.4046 64.2157 39.5037 64.0166C39.6029 63.6184 42.0815 61.6272 42.9737 60.8307C43.2712 60.532 43.6677 61.2289 43.866 61.5276C44.1634 62.0254 44.3617 62.5232 44.1635 63.1206C44.0643 63.5188 43.4695 64.0166 43.866 64.3153C44.4609 63.6184 46.2454 61.5276 46.4437 61.3285C46.7412 61.0298 45.8489 61.3285 45.948 61.2289C45.5514 61.4281 45.254 61.4281 44.8574 61.2289C44.7583 61.1294 43.7669 60.1338 43.866 60.0342C44.2626 59.636 44.8574 59.0386 45.3532 58.9391C46.2454 58.74 46.9394 60.4325 47.0386 61.0298C47.1377 61.6272 47.1377 62.2245 46.9394 62.8219C46.8403 63.2201 46.4437 63.5188 46.9394 63.7179C47.6334 62.7223 48.3274 61.8263 49.0214 60.8307C49.2197 60.6316 49.0214 60.532 48.9223 60.532C48.8231 60.4325 49.1206 60.532 48.9223 60.532Z" fill="white"/>
<path d="M38.8098 56.3505C40.9909 54.4589 41.2883 51.273 39.6029 49.0827C37.7192 46.5937 34.2492 45.9964 31.8698 47.9876C29.6886 49.8792 29.3912 52.9655 31.0766 55.2554C33.0595 57.9435 36.2321 58.2422 38.8098 56.3505C39.9995 55.4545 38.7106 56.4501 38.8098 56.3505ZM38.314 51.6712C37.7192 53.1646 36.1329 54.7576 34.6458 55.3549C32.8612 56.0519 31.5724 54.5585 32.2664 52.7664C32.9603 51.273 34.4475 49.6801 35.9346 49.0827C37.8183 48.3858 39.008 49.9787 38.314 51.6712C37.9175 52.5673 38.4132 51.4721 38.314 51.6712Z" fill="white"/>
<path d="M32.4646 41.8149C32.9603 41.9144 33.3569 42.3127 33.7535 41.8149C33.0595 40.9188 32.2663 40.0228 31.5723 39.2263C30.9775 39.525 31.5724 39.7241 31.3741 40.2219C31.1758 40.6202 28.7964 41.0184 28.2015 41.118C28.3998 40.5206 29.0938 38.5294 29.3912 38.3303C29.8869 37.9321 30.2835 38.7285 30.6801 38.2307C29.7878 37.1356 28.8955 36.0404 28.0032 34.9453C27.7058 34.5471 27.4084 33.9497 27.0118 34.2484C27.0118 34.2484 27.0118 35.7418 26.9127 35.9409C26.8135 36.14 26.0204 39.525 25.0289 40.421C24.5332 40.8193 22.8478 42.3127 22.3521 42.5118C21.8564 42.7109 21.559 41.9144 21.1624 42.5118C21.9555 43.5074 22.8478 44.503 23.6409 45.4986C23.7401 45.5981 24.2358 46.3946 24.4341 46.3946C24.9298 46.4942 24.5332 45.4986 24.5332 45.2995C24.7315 44.9012 27.0118 42.6114 28.0032 42.4122C29.1929 42.2131 30.9775 41.7153 32.4646 41.8149C32.7621 41.9144 32.0681 41.8149 32.4646 41.8149Z" fill="white"/>
<path d="M26.2187 22.7991C22.253 22.5999 23.8392 18.8167 26.6152 18.0202C29.1929 17.2237 34.6458 19.7127 36.3312 21.4052C33.5552 22.3013 29.9861 22.1021 27.0118 22.3013C26.8135 19.1154 26.0204 20.2105 26.2187 22.7991Z" fill="#DC6243"/>
<path d="M35.6372 35.244C27.1109 35.1444 32.8612 22.0026 35.7363 22.7991C39.1072 23.8942 38.7106 35.3435 35.6372 35.244Z" fill="#DC6243"/>
<path d="M41.6849 30.9629C40.8918 33.4519 39.3055 33.9497 39.5038 30.8634C39.702 27.3788 41.9823 28.1753 44.3617 26.881C46.3446 25.7858 47.4352 21.7039 50.9052 24.0933C52.4914 25.1885 54.276 24.2925 54.7717 25.8854C54.7717 25.7858 50.3103 36.14 52.7889 36.14C47.8317 36.14 50.0129 30.266 51.8966 26.2836C50.112 27.1797 47.1377 32.9541 49.5172 33.8501C48.2283 35.5426 44.3617 37.733 42.3789 36.14C40.8917 35.0449 41.6849 32.9541 41.6849 30.9629Z" fill="#DC6243"/>
<path d="M45.7497 40.5206C42.2797 41.5162 37.7192 39.3259 43.2712 38.2307C46.7412 37.5338 50.4094 38.9277 45.7497 40.5206C45.8489 40.5206 45.6506 40.5206 45.7497 40.5206Z" fill="#DC6243"/>
<path d="M50.112 40.421C49.418 38.7285 50.7068 36.8369 52.7888 38.2307C54.5734 39.4255 51.8966 41.3171 50.112 40.421Z" fill="#DC6243"/>
<path d="M47.1377 45.0008C44.7583 44.3039 36.7278 44.4034 41.9823 42.2131C43.6677 41.6158 52.0949 42.4122 47.1377 45.0008Z" fill="#DC6243"/>
<path d="M57.5477 48.2862C56.1597 47.0915 54.6725 46.992 53.3837 48.2862C51.5991 45.0008 45.1549 46.0959 42.0815 45.5981C43.6677 49.6801 56.7545 50.4765 57.5477 48.2862Z" fill="#DC6243"/>
<path d="M55.664 50.7752C52.4914 50.6757 49.0214 50.1779 46.1463 50.8748C48.03 51.3726 52.4914 52.6668 48.3274 53.762C49.8146 55.9523 52.2931 55.7532 53.8794 53.8615C53.1854 53.5629 52.888 53.1646 52.2931 52.7664C53.8794 52.4677 55.4657 51.5717 55.664 50.7752Z" fill="#DC6243"/>
<path d="M59.2331 46.8924C53.9786 43.8061 55.2674 41.5162 59.6297 39.3259C61.91 38.2307 66.8671 34.1488 68.9491 35.4431C65.6774 39.3259 62.4057 43.1092 59.2331 46.8924Z" fill="#DC6243"/>
<path d="M55.4657 39.6246C51.0043 35.0449 62.1082 35.4431 63.8928 33.8501C65.1817 34.2484 74.6002 25.5867 76.8805 26.1841C75.1951 28.0757 71.7251 34.2484 69.1474 34.2484C67.1645 34.2484 65.1817 33.9497 63.6945 35.3435C61.5134 37.4343 57.8451 38.4299 55.4657 39.6246Z" fill="#F49774"/>
<path d="M56.9529 34.0493C54.4743 35.3435 52.194 30.1664 56.4571 30.6642C59.2331 30.9629 62.1083 30.4651 64.686 30.8634C62.7031 33.1532 60.0263 34.4475 56.9529 34.0493Z" fill="#F4B1A4"/>
<path d="M69.4448 52.2686C69.6431 52.866 69.7422 53.5629 69.6431 54.2598C69.5439 55.1558 68.6517 57.147 67.462 56.5496C66.2722 55.9523 65.2808 54.8571 64.2894 53.9611C65.0825 53.0651 65.7765 52.2686 67.1645 52.6668C67.5611 52.7664 67.8585 52.6668 67.462 52.3682C67.0654 52.169 64.3885 50.377 64.1903 50.5761C63.8928 50.8748 64.686 51.4721 64.3885 52.0695C64.1903 52.4677 63.7937 52.866 63.4963 53.2642C62.8023 52.6668 61.6125 51.9699 62.4057 50.9743C62.9014 50.2774 63.6945 49.7796 64.4877 49.6801C65.0825 49.5805 66.2722 50.0783 66.4705 49.4809C65.38 48.9831 64.2894 48.4853 63.1988 47.888C63.3971 48.6845 59.9271 52.3682 59.134 53.3638C59.0348 53.4633 58.44 53.9611 58.44 54.1602C58.44 54.5585 59.0348 54.2598 59.134 54.2598C59.6297 54.0607 65.8757 59.3373 66.074 59.7355C66.1731 60.0342 65.8757 60.3329 66.074 60.4325C66.074 60.4325 66.2722 60.6316 66.3714 60.6316C66.768 60.1338 70.8328 54.658 71.7251 54.4589C70.9319 53.2642 70.1388 52.0695 69.3457 50.7752C68.7508 51.0739 69.3457 51.7708 69.4448 52.2686Z" fill="white"/>
<path d="M63.298 58.9391C61.216 57.6448 57.746 60.2333 57.2503 60.4325C56.2588 60.9303 55.4657 59.9347 55.9614 58.9391C56.4571 58.1426 57.3494 57.7444 58.2417 57.6448C58.5391 57.6448 59.5305 57.8439 59.7288 57.6448C59.828 57.4457 59.9271 57.4457 59.7288 57.3461C58.8366 56.7488 58.0434 56.1514 57.1511 55.6536C56.9528 56.7488 55.7631 57.3461 55.0691 58.043C54.276 58.9391 53.582 59.9347 53.582 61.2289C53.582 62.3241 54.276 63.3197 55.2674 63.917C56.358 64.5144 57.5477 64.0166 58.5391 63.4192C59.134 63.021 59.828 62.5232 60.4228 62.2245C61.4143 61.7267 62.7031 62.125 62.4057 63.5188C62.1083 64.6139 61.0177 65.6095 60.0263 65.8087C59.4314 66.0078 58.7374 65.9082 58.1426 65.7091C57.746 65.6095 57.1511 65.0122 56.9528 65.6095C58.1426 66.406 59.2331 67.302 60.4228 68.0985C60.522 67.302 60.9185 67.0034 61.5134 66.5056C62.2074 65.9082 62.9014 65.2113 63.4963 64.4148C64.686 62.7223 65.0825 60.3329 63.298 58.9391Z" fill="white"/>
<path d="M63.298 58.9391C64.2894 59.5364 62.7031 58.4413 63.298 58.9391V58.9391Z" fill="white"/>
<path d="M99.6833 19.5136C98.9893 20.2105 91.3553 17.2237 90.7605 16.726C90.463 16.6264 90.463 15.4317 90.0665 15.9295C89.6699 16.4273 89.2733 16.9251 88.8768 17.4229C88.4802 17.9207 88.0836 18.4185 87.5879 18.9163C87.2905 19.2149 87.0922 19.4141 87.5879 19.6132C88.381 19.2149 92.9416 26.881 92.545 28.0757C91.851 28.4739 85.7042 22.9982 85.5059 22.6995C85.4068 22.5999 85.8033 21.7039 85.3076 21.8035C85.1093 21.8035 84.6136 22.6995 84.4153 22.8986C84.1179 23.2969 83.8205 23.5955 83.5231 23.9938C83.8205 24.4916 84.0188 23.9938 84.5145 23.9938C84.911 24.0933 86.299 25.288 86.6956 25.6863C86.0016 25.6863 84.0188 25.7858 83.8205 25.7858C82.9282 25.8854 83.4239 25.0889 82.8291 24.8898C82.0359 25.7858 81.3419 26.6819 80.5488 27.6775C80.1522 28.1753 79.6565 28.7726 79.2599 29.2704C79.1608 29.37 79.2599 29.2704 79.2599 29.37C79.5574 29.6687 79.3591 29.5691 79.8548 29.37C80.3505 29.1709 86.3982 34.2484 86.5965 34.5471C86.993 34.9453 86.3982 35.5426 86.993 35.7418C87.5879 35.0449 88.1827 34.2484 88.7776 33.5515C88.8767 33.4519 88.8767 33.4519 88.7776 33.3523C88.381 32.9541 88.2819 33.5515 87.7862 33.5515C87.2905 33.4519 83.4239 30.1664 81.9368 28.9717C83.7213 28.8722 89.1742 28.6731 90.0665 28.6731C90.3639 28.6731 91.157 29.5691 91.157 29.8678C91.0579 30.266 90.6613 30.4651 91.2562 30.6642C91.7519 30.0669 92.2476 29.5691 92.7433 28.9717L92.9416 28.6731C93.0407 28.5735 93.0407 28.5735 93.1399 28.3744L93.3382 28.1753C93.7347 27.6775 95.1227 26.1841 94.9245 26.0845C94.4287 25.6863 94.2304 26.5823 93.6356 25.985C93.3382 25.7858 92.4459 24.1929 92.2476 23.7947C91.9502 23.3964 92.8424 22.8986 93.239 22.6995C94.0322 22.2017 96.4116 21.5048 96.709 22.9982C96.709 23.2969 96.4116 23.496 96.6099 23.6951C96.6099 23.6951 96.8082 23.8942 96.9073 23.8942C97.1056 23.6951 99.2867 21.1066 100.179 19.9118C99.8816 19.7127 99.7824 19.6132 99.6833 19.5136ZM92.3467 21.7039C92.4459 21.7039 92.545 21.6044 92.3467 21.7039C92.0493 21.903 91.6527 22.2017 91.3553 22.5004C90.8596 21.6044 90.3639 20.7083 89.769 19.8123C90.9587 20.3101 92.1484 20.8079 93.239 21.3057C93.0407 21.4052 92.7433 21.5048 92.3467 21.7039Z" fill="white"/>
<path d="M82.7299 32.8545C80.3505 30.8634 77.1779 31.4607 75.1951 33.651C73.3114 35.9409 73.5097 39.3259 75.7899 41.2175C78.0702 43.1092 81.4411 42.6114 83.3248 40.4211C85.2085 38.1312 85.1093 34.7462 82.7299 32.8545ZM82.4325 39.4255C82.4325 39.4255 82.4325 39.525 82.4325 39.4255C81.1436 40.7197 79.0616 39.525 77.9711 38.7285C76.8805 37.9321 74.8976 36.14 76.0874 34.6466C77.1779 33.3523 79.1608 34.4475 80.2513 35.1444C81.4411 35.9409 83.6222 37.733 82.5316 39.3259C82.6308 39.2263 82.6308 39.2263 82.4325 39.4255Z" fill="white"/>
<path d="M82.7299 32.8546C83.9196 33.8501 82.4325 32.6554 82.7299 32.8546V32.8546Z" fill="white"/>
<path d="M82.4325 39.5255C82.4325 39.4255 82.4325 39.4255 82.4325 39.5255C82.5325 39.4255 82.5325 39.4255 82.5325 39.4255C82.4325 39.4255 82.4325 39.5255 82.4325 39.5255Z" fill="white"/>
<path d="M76.1865 41.9144C76.2856 42.014 76.4839 42.2131 76.1865 41.9144C73.3114 39.7241 69.9405 40.3215 67.7594 43.0096C66.7679 44.2043 65.7765 45.399 64.7851 46.5937C65.1817 47.0915 65.5782 46.4942 66.074 46.7928C66.4705 47.0915 72.2208 51.8704 72.3199 52.169C72.5182 52.6668 72.0225 52.6668 72.4191 53.0651C72.6174 53.1646 76.8805 47.888 77.2771 46.8924C78.1693 45.1003 77.5745 43.2087 76.1865 41.9144ZM74.8976 48.6845C74.6994 48.9832 74.8976 48.784 74.2036 49.3814C73.9062 49.6801 67.8585 44.7021 68.0568 44.503C68.8499 43.607 70.6345 42.91 71.6259 43.2087C73.8071 43.7065 76.7813 46.3946 74.8976 48.6845Z" fill="white"/>
</svg>
